<?xml version="1.0" encoding="iso-8859-1"?>
<!-- Generator: Adobe Illustrator 19.0.0, SVG Export Plug-In . SVG Version: 6.00 Build 0)  -->
<svg version="1.1" id="Layer_1" xmlns="http://www.w3.org/2000/svg" xmlns:xlink="http://www.w3.org/1999/xlink" x="0px" y="0px"
	 viewBox="0 0 512 512" style="enable-background:new 0 0 512 512;" xml:space="preserve">
<g>
	<g>
		<g>
			<path d="M234.667,64h-192C19.136,64,0,83.136,0,106.667v298.667C0,428.864,19.136,448,42.667,448h192V289.835L268.501,256
				l-33.835-33.835V64z M85.333,149.333h85.333c11.797,0,21.333,9.557,21.333,21.333S182.464,192,170.667,192H85.333
				C73.536,192,64,182.443,64,170.667S73.536,149.333,85.333,149.333z M170.667,362.667H85.333
				c-11.797,0-21.333-9.557-21.333-21.333S73.536,320,85.333,320h85.333c11.797,0,21.333,9.557,21.333,21.333
				S182.464,362.667,170.667,362.667z M192,277.333h-85.333c-11.797,0-21.333-9.557-21.333-21.333
				c0-11.776,9.536-21.333,21.333-21.333H192c11.797,0,21.333,9.557,21.333,21.333C213.333,267.776,203.797,277.333,192,277.333z"/>
			<path d="M469.333,64h-192v140.501L328.832,256l-51.499,51.499V448h192C492.864,448,512,428.864,512,405.333V106.667
				C512,83.136,492.864,64,469.333,64z M320,192c-11.797,0-21.333-9.557-21.333-21.333s9.536-21.333,21.333-21.333h85.333
				c11.797,0,21.333,9.557,21.333,21.333S417.131,192,405.333,192H320z M405.333,362.667H320c-11.797,0-21.333-9.557-21.333-21.333
				S308.203,320,320,320h85.333c11.797,0,21.333,9.557,21.333,21.333S417.131,362.667,405.333,362.667z M426.667,277.333h-64
				c-11.797,0-21.333-9.557-21.333-21.333c0-11.776,9.536-21.333,21.333-21.333h64c11.797,0,21.333,9.557,21.333,21.333
				C448,267.776,438.464,277.333,426.667,277.333z"/>
		</g>
	</g>
</g>
<g>
</g>
<g>
</g>
<g>
</g>
<g>
</g>
<g>
</g>
<g>
</g>
<g>
</g>
<g>
</g>
<g>
</g>
<g>
</g>
<g>
</g>
<g>
</g>
<g>
</g>
<g>
</g>
<g>
</g>
</svg>
